<svg width="1105" height="419" viewBox="0 0 1105 419" fill="none" xmlns="http://www.w3.org/2000/svg">
<path d="M198.552 135.514L178.694 150.074L170.34 197.828H181.483L146.893 392.66L163.613 415.366H249.709L269.554 400.82L293.996 378.114L326.895 192.818L339.91 183.282L348.264 135.514H278.747L266.326 144.61L267.914 135.514H198.552ZM389.427 135.514L369.568 150.074L344.972 172.78L328.909 262.895L375.65 304.22L340.233 297.195L320.375 311.741L305.952 392.66L322.673 415.366H408.768L428.614 400.82L453.056 378.114L469.118 287.999L422.545 246.717L457.794 253.883L477.653 239.337L492.075 158.234L475.522 135.514H389.427ZM543.735 135.514L523.877 150.074L499.112 172.78L460.248 392.66L476.981 415.366H563.064L582.922 400.82L607.519 378.114L620.146 306.207L574.723 297.195L554.865 311.741L547.583 353.237H531.598L559.035 197.828H575.033L566.679 244.687L612.27 253.883L632.116 239.337L646.383 158.234L629.817 135.514H543.735ZM701.323 135.514L681.451 150.074L656.7 172.78L617.835 392.66L634.556 415.366H720.651L740.51 400.82L765.107 378.114L777.734 306.207L732.311 297.195L712.452 311.741L705.17 353.237H689.186L716.623 197.828H732.621L724.254 244.687L769.845 253.883L789.703 239.337L803.971 158.234L787.405 135.514H701.323ZM858.575 135.514L838.716 150.074L813.952 172.78L775.087 392.66L791.653 415.366H877.736L897.594 400.82L922.359 378.114L961.223 158.234L944.502 135.514H858.575Z" fill="black"/>
<path d="M197.541 131.879L175.708 147.89L166.334 201.459H177.464L143.353 393.625L162.036 419H250.711L271.54 403.73L297.015 380.059L329.875 195.005L338.809 188.46L325.277 264.356L363.484 298.119L339.506 293.365L317.389 309.556L302.412 393.625L321.096 419H409.771L430.599 403.73L456.074 380.059L472.742 286.554L434.781 252.904L458.513 257.729L480.634 241.523L495.61 157.284L477.108 131.879H388.416L367.577 147.165L346.13 166.96L352.262 131.879H277.75L271.048 136.776L271.912 131.879H197.541ZM542.724 131.879L521.898 147.165L496.089 170.82L456.706 393.625L475.403 419H564.054L584.907 403.73L610.536 380.074L624.016 303.285L573.996 293.365L551.879 309.556L544.855 349.604H535.597L561.755 201.459H571.013L562.79 247.598L612.989 257.729L635.095 241.523L649.918 157.269L631.402 131.879H542.724ZM700.311 131.879L679.472 147.165L653.676 170.82L614.294 393.625L632.977 419H721.642L742.494 403.73L768.123 380.074L781.603 303.285L731.583 293.365L709.466 309.556L702.443 349.604H693.185L719.343 201.459H728.601L720.364 247.598L770.566 257.729L792.682 241.523L807.505 157.269L788.989 131.879H700.311ZM857.563 131.879L836.738 147.165L810.928 170.82L771.546 393.625L790.062 419H878.727L899.566 403.73L925.375 380.074L964.758 157.269L946.074 131.879H857.563ZM198.552 135.518H267.915L266.323 144.616L278.738 135.518H348.265L339.902 183.279L326.896 192.812L293.988 378.111L269.555 400.816L249.7 415.369H163.611L146.885 392.657L181.485 197.828H170.334L178.697 150.068L198.552 135.518ZM389.424 135.518H475.513L492.074 158.227L477.644 239.33L457.789 253.88L422.537 246.719L469.117 287.996L453.047 378.111L428.615 400.816L408.759 415.369H322.67L305.945 392.657L320.375 311.734L340.23 297.188L375.649 304.216L328.902 262.891L344.972 172.776L369.568 150.068L389.424 135.518ZM543.728 135.518H629.817L646.379 158.227L632.113 239.33L612.261 253.88L566.671 244.688L575.034 197.828H559.033L531.593 353.239H547.578L554.865 311.734L574.723 297.188L620.146 306.199L607.519 378.111L582.919 400.816L563.064 415.369H476.975L460.249 392.657L499.112 172.776L523.873 150.068L543.728 135.518ZM701.315 135.518H787.401L803.966 158.227L789.7 239.33L769.841 253.88L724.252 244.688L732.615 197.828H716.62L689.177 353.239H705.162L712.445 311.734L732.304 297.188L777.729 306.199L765.1 378.111L740.503 400.816L720.651 415.369H634.559L617.833 392.657L656.696 172.776L681.453 150.068L701.315 135.518ZM858.571 135.518H944.493L961.219 158.227L922.359 378.111L897.595 400.816L877.736 415.369H791.651L775.089 392.657L813.948 172.776L838.712 150.068L858.571 135.518Z" fill="black"/>
<path d="M198.552 135.514L178.694 150.074L170.34 197.828H181.483L146.893 392.66L163.613 415.366H249.709L269.554 400.82L293.996 378.114L326.895 192.818L339.91 183.282L348.264 135.514H278.747L266.326 144.61L267.914 135.514H198.552ZM389.427 135.514L369.568 150.074L344.972 172.78L328.909 262.895L375.65 304.22L340.233 297.195L320.375 311.741L305.952 392.66L322.673 415.366H408.768L428.614 400.82L453.056 378.114L469.118 287.999L422.545 246.717L457.794 253.883L477.653 239.337L492.075 158.234L475.522 135.514H389.427ZM543.735 135.514L523.877 150.074L499.112 172.78L460.248 392.66L476.981 415.366H563.064L582.922 400.82L607.519 378.114L620.146 306.207L574.723 297.195L554.865 311.741L547.583 353.237H531.598L559.035 197.828H575.033L566.679 244.687L612.27 253.883L632.116 239.337L646.383 158.234L629.817 135.514H543.735ZM701.323 135.514L681.451 150.074L656.7 172.78L617.835 392.66L634.556 415.366H720.651L740.51 400.82L765.107 378.114L777.734 306.207L732.311 297.195L712.452 311.741L705.17 353.237H689.186L716.623 197.828H732.621L724.254 244.687L769.845 253.883L789.703 239.337L803.971 158.234L787.405 135.514H701.323ZM858.575 135.514L838.716 150.074L813.952 172.78L775.087 392.66L791.653 415.366H877.736L897.594 400.82L922.359 378.114L961.223 158.234L944.502 135.514H858.575Z" fill="black"/>
<path fill-rule="evenodd" clip-rule="evenodd" d="M249.703 415.371H163.614L146.888 392.662L181.488 197.834H170.337L178.7 150.073H248.063L239.7 197.834H228.55L198.378 367.79H231.501L261.674 197.834H250.523L258.886 150.073H328.413L320.05 197.834H308.736L274.136 392.662L249.703 415.371ZM408.763 415.371H322.674L305.948 392.662L320.378 311.739L365.8 320.75L357.437 367.79H390.725L398.432 324.355L328.905 262.897L344.975 172.782L369.572 150.073H455.661L472.223 172.782L457.792 253.885L412.534 244.693L420.897 197.834H387.609L379.902 241.089L449.266 302.547L433.196 392.662L408.763 415.371ZM563.067 415.371H476.978L460.252 392.662L499.115 172.782L523.876 150.073H609.965L626.527 172.782L612.261 253.885L566.675 244.693L575.038 197.834H541.75L511.742 367.79H545.029L554.868 311.739L600.29 320.75L587.664 392.662L563.067 415.371ZM720.651 415.371H634.562L617.836 392.662L656.699 172.782L681.46 150.073H767.549L784.111 172.782L769.845 253.885L724.258 244.693L732.621 197.834H699.334L669.326 367.79H702.613L712.452 311.739L757.874 320.75L745.248 392.662L720.651 415.371ZM859.869 367.79L889.877 197.834H856.59L826.581 367.79H859.869ZM877.743 415.371H791.654L775.092 392.662L813.955 172.782L838.716 150.073H924.641L941.367 172.782L902.504 392.662L877.743 415.371Z" fill="white"/>
<path fill-rule="evenodd" clip-rule="evenodd" d="M241.264 0C178.923 0 125.222 47.7375 114.729 113.02L75.3745 357.834H123.664L161.651 121.591C168.226 80.6824 201.577 50.8333 241.264 50.8333H1012.22C1026.56 50.8333 1038.81 57.4422 1046.96 67.6216C1055.1 77.801 1059.12 91.4248 1056.76 106.108L1016.33 357.834H1064.63L1103.68 114.708C1113.29 54.8939 1069.21 1.45319e-05 1012.22 0H241.264Z" fill="black"/>
<path fill-rule="evenodd" clip-rule="evenodd" d="M241.268 7.271C182.01 7.271 131.149 52.6075 121.236 114.282L83.2505 350.567H118.13L155.142 120.328C162.288 75.8665 198.549 43.5723 241.268 43.5723H1012.22C1044.62 43.5723 1068.69 73.6443 1063.27 107.366L1024.2 350.567H1059.08L1097.17 113.445C1106.04 58.2607 1065.24 7.27101 1012.22 7.271H241.268Z" fill="white"/>
<path fill-rule="evenodd" clip-rule="evenodd" d="M166.007 61.4424C103.459 61.4424 49.7837 109.29 39.3202 174.39L0 419H48.5639L86.539 182.837C93.1458 141.732 126.509 112.017 166.007 112.017H936.96C951.183 112.017 963.365 118.54 971.52 128.73C979.675 138.921 983.73 152.668 981.35 167.472L940.926 419H989.525L1028.57 175.955C1038.13 116.449 994.134 61.4424 936.96 61.4424H166.007Z" fill="black"/>
<path fill-rule="evenodd" clip-rule="evenodd" d="M166.009 68.5791C106.751 68.5791 55.8893 113.916 45.9763 175.59L7.99121 411.875H42.8709L79.8824 181.636C87.0286 137.175 123.29 104.88 166.009 104.88H936.96C969.36 104.88 993.429 134.952 988.009 168.674L948.941 411.875H983.82L1021.91 174.753C1030.78 119.569 989.982 68.5791 936.96 68.5791H166.009Z" fill="white"/>
</svg>
